<?xml version="1.0" encoding="iso-8859-1"?>
<!-- Generator: Adobe Illustrator 19.0.0, SVG Export Plug-In . SVG Version: 6.00 Build 0)  -->
<svg version="1.1" id="Capa_1" xmlns="http://www.w3.org/2000/svg" xmlns:xlink="http://www.w3.org/1999/xlink" x="0px" y="0px"
	 viewBox="0 0 512 512" style="enable-background:new 0 0 512 512;" xml:space="preserve">
<rect x="97.103" y="26.483" style="fill:#0D529E;" width="353.103" height="485.517"/>
<polygon style="fill:#90D1F3;" points="361.931,423.724 361.931,476.69 61.793,476.69 61.793,0 414.897,0 414.897,423.724 "/>
<g>
	<polygon style="fill:#FFFFFF;" points="414.897,423.724 361.931,423.724 361.931,476.69 	"/>
	<rect x="105.931" y="308.966" style="fill:#FFFFFF;" width="114.759" height="114.759"/>
</g>
<polygon style="fill:#269BD8;" points="105.931,406.069 141.241,370.759 167.724,397.241 194.207,370.759 220.69,397.241 
	220.69,423.724 105.931,423.724 "/>
<rect x="264.828" y="308.966" style="fill:#FCBF29;" width="105.931" height="35.31"/>
<polygon style="opacity:0.5;fill:#F28D01;enable-background:new    ;" points="326.621,344.276 264.828,344.276 264.828,308.966 
	308.966,308.966 "/>
<rect x="105.931" y="44.138" style="fill:#FCBF29;" width="264.828" height="70.621"/>
<path style="opacity:0.5;fill:#F28D01;enable-background:new    ;" d="M264.828,114.759L264.828,114.759
	c-38.462-0.547-69.199-32.159-68.661-70.621h-90.236v70.621H264.828z"/>
<g>
	<rect x="97.103" y="150.069" style="fill:#591E00;" width="132.414" height="17.655"/>
	<rect x="97.103" y="185.379" style="fill:#591E00;" width="132.414" height="17.655"/>
	<rect x="97.103" y="220.69" style="fill:#591E00;" width="132.414" height="17.655"/>
	<rect x="97.103" y="256" style="fill:#591E00;" width="132.414" height="17.655"/>
	<rect x="256" y="414.897" style="fill:#591E00;" width="70.621" height="17.655"/>
	<rect x="256" y="379.586" style="fill:#591E00;" width="123.586" height="17.655"/>
	<rect x="158.897" y="335.448" style="fill:#591E00;" width="17.655" height="17.655"/>
</g>
<path style="fill:#FCBF29;" d="M353.103,273.655V251.26c21.804-19.5,23.667-52.983,4.167-74.787
	c-19.5-21.804-52.983-23.667-74.787-4.167s-23.667,52.983-4.167,74.787c1.306,1.465,2.701,2.86,4.167,4.167v22.396H353.103z"/>
<path style="opacity:0.5;fill:#F28D01;enable-background:new    ;" d="M339.862,242.759c-29.255-0.035-52.939-23.773-52.904-53.027
	c0.009-8.598,2.11-17.055,6.118-24.655c-25.83,13.612-35.734,45.586-22.122,71.415c2.931,5.57,6.841,10.567,11.529,14.769v22.396
	h70.621V251.26c4.617-4.167,8.466-9.101,11.388-14.592C356.899,240.675,348.442,242.767,339.862,242.759z"/>
<g>
	<rect x="308.966" y="238.345" style="fill:#FFFFFF;" width="17.655" height="35.31"/>
	<path style="fill:#FFFFFF;" d="M317.793,247.172c-2.339,0-4.59-0.927-6.241-2.586l-26.483-26.483l12.482-12.482l20.242,20.242
		l20.242-20.242l12.482,12.482l-26.483,26.483C322.383,246.246,320.132,247.172,317.793,247.172z"/>
</g>
<rect x="256" y="264.828" style="fill:#591E00;" width="123.586" height="17.655"/>
<g>
</g>
<g>
</g>
<g>
</g>
<g>
</g>
<g>
</g>
<g>
</g>
<g>
</g>
<g>
</g>
<g>
</g>
<g>
</g>
<g>
</g>
<g>
</g>
<g>
</g>
<g>
</g>
<g>
</g>
</svg>
